<svg xmlns="http://www.w3.org/2000/svg" width="1000" height="1000" viewBox="0 0 1000 1000"><title>authenticity_icon</title><path d="M834,233.43c0-.24,0-.48,0-.72A15.13,15.13,0,0,0,818.93,218h-.39a441.3,441.3,0,0,1-174.18-30.83A441.81,441.81,0,0,1,510.27,103.9a14.49,14.49,0,0,0-2.48-1.82,2.85,2.85,0,0,0-.3-.16c-.33-.19-.66-.37-1-.53l-.66-.27c-.23-.09-.46-.2-.7-.28s-.56-.17-.83-.25l-.57-.17c-.29-.07-.58-.11-.87-.17s-.38-.08-.56-.1l-.83-.09-.63,0c-.24,0-.48,0-.73,0s-.49,0-.73,0l-.63,0c-.27,0-.55,0-.82.09s-.38.07-.56.1-.59.1-.88.17l-.56.17c-.28.08-.56.15-.84.25s-.46.19-.69.28-.45.17-.66.27-.67.34-1,.52l-.31.17A14.89,14.89,0,0,0,490,103.9a441.81,441.81,0,0,1-134.09,83.22A441.36,441.36,0,0,1,181.68,218a15.15,15.15,0,0,0-15.52,14.76c0,.24,0,.48,0,.72s0,.3,0,.46V438.72q0,.52,0,1l.19,2.67c3.38,48.85,12.35,178.62,90.2,289.52C329.13,835.32,425,872.64,476.42,892.69c6.87,2.68,12.8,5,17.77,7.1a16.23,16.23,0,0,0,1.56.56l.21,0a14.89,14.89,0,0,0,1.73.39l.45.07a16.29,16.29,0,0,0,2,.14h0a16,16,0,0,0,1.95-.14l.47-.07c.57-.1,1.15-.22,1.72-.38l.21-.06a15.31,15.31,0,0,0,1.56-.56c5-2.11,10.91-4.42,17.78-7.1C575.28,872.64,671.09,835.32,743.64,732c77.85-110.9,86.83-240.67,90.2-289.52l.19-2.67c0-.35,0-.7,0-1V233.89C834.07,233.73,834.05,233.58,834,233.43ZM803.63,440.35c-3.22,46.55-11.77,170.21-84.78,274.21-67.29,95.86-157.55,131-206,149.91-4.62,1.8-8.83,3.44-12.7,5-3.87-1.56-8.07-3.2-12.7-5-48.49-18.89-138.75-54-206-149.91-73-104-81.56-227.66-84.78-274.21l-.15-2.15V248.34A471,471,0,0,0,367,215.29a471.45,471.45,0,0,0,133.12-80,471.69,471.69,0,0,0,133.12,80,471,471,0,0,0,170.55,33.05V438.2Z" fill="#2699fb"/><path d="M589,431.25,459.85,561.49l-48.62-49a15.15,15.15,0,1,0-21.49,21.35l59.38,59.78a15.14,15.14,0,0,0,10.74,4.47h0a15.18,15.18,0,0,0,10.75-4.48L610.49,452.57A15.14,15.14,0,0,0,589,431.25Z" fill="#2699fb"/></svg>