<svg xmlns="http://www.w3.org/2000/svg" width="1000" height="1000" viewBox="0 0 1000 1000"><title>confidence_fist_icon</title><path d="M760.63,304.63c-12-15.91-30.48-24.66-48.25-22.84-2.31.23-4.66.38-7.07.48.14-.48.29-1,.43-1.44,7-25,1.61-47.54-15.47-65.21-16.13-16.7-37.84-22.54-62.83-17a86.53,86.53,0,0,0,0-9.82c-1.52-22.09-11.48-39.14-29.59-50.67-19.46-12.39-40.67-14.2-59.74-5.08l-1.43.68c-3.7,1.77-7.91,3.77-12.12,6.27-.05-.11-.12-.22-.17-.33-10.64-23-30.75-36.21-56.62-37.29-27-1.11-49.64,13.34-60.49,38.7-7.47,17.47-14.05,35.44-20.42,52.83q-1.86,5.1-3.74,10.19a27.39,27.39,0,0,0-1.4,5.78,78.83,78.83,0,0,0-31.94,15.44c-18.4,15.06-37.17,30.32-55.33,45.06q-21.37,17.37-42.72,34.76c-26.09,21.29-30.57,53.72-11.41,82.62,35.14,53,76.52,116,117,181.26A130.72,130.72,0,0,1,376.85,650c-1.1,14-1.6,28-2.08,41.66-.46,13.15-.95,26.75-2,39.93-.86,11.05-1.41,22.2-1.93,33-.73,15-1.48,30.49-3.1,45.49-1,8.83-1.19,17.62-1.41,26.12-.1,3.78-.2,7.69-.37,11.46-.2,4.57-.58,9.13-1,13.95-.64,7.57-1.29,15.4-1.23,23.47a14.48,14.48,0,0,0,14.48,14.36h.12a14.48,14.48,0,0,0,14.36-14.6c-.06-6.74.51-13.57,1.12-20.81.41-4.9.84-10,1.06-15.1.18-4,.28-8.06.39-12,.21-8.28.42-16.11,1.25-23.78,1.71-15.84,2.48-31.77,3.23-47.18.52-10.58,1-21.51,1.88-32.14,1.07-13.79,1.56-27.7,2-41.16.47-13.31,1-27.07,2-40.41,2.79-35.37-5.2-68.49-23.77-98.42-40.68-65.59-82.21-128.8-117.47-182-10.84-16.34-8.8-32.45,5.58-44.19q21.32-17.39,42.67-34.71c18.18-14.77,37-30,55.41-45.13,7.3-6,16.89-9.74,28.49-11.16,4.19-.52,12.5,2.71,18.62,5.09,6.75,2.63,13.38,6,20.39,9.59,13.52,6.9,27.47,14,44.06,16.63,5.67,5.59,12.23,8.88,17.64,11.59,1.79.9,3.49,1.75,5,2.61l1,.57c-8.72,14.46-16.64,22.42-26.3,26.49-.9.37-1.79.76-2.69,1.14C461.06,316,453.08,319,444,314.62a65.11,65.11,0,0,0-17-5,31.44,31.44,0,0,0-1.19-4.4,14.48,14.48,0,1,0-27.34,9.52c.05.17.09.3.11.38-.27.64-1.24,2-4.14,5-4.58,4.74-9,9.62-13.23,14.34-2.11,2.33-4.21,4.67-6.34,7-2.28,2.49-6,6.55-8.29,11.73l-18.81,5.19a14.48,14.48,0,0,0,3.84,28.44,14.7,14.7,0,0,0,3.86-.52l20-5.52a56.74,56.74,0,0,0,8.58,4.7c4.08,1.89,8.2,3.68,12.19,5.41,8.9,3.87,17.31,7.52,25.09,12.13,4.31,2.55,9.38,4.05,16,4.71,1.51.15,2.58.41,4.56,2.61,9.54,10.59,21.08,18,31.26,24.55h0c2.43,8.64,8.06,14.78,12.14,19.22,1.1,1.2,2.15,2.34,3,3.38,17.85,21.63,29.05,44.8,34.26,70.83l.63,3.13c2.65,13.12,5.16,25.52,3.09,37.36a14.48,14.48,0,1,0,28.52,5c3-17.22-.3-33.62-3.23-48.09l-.62-3.07c-6.08-30.4-19.64-58.52-40.32-83.58-1.34-1.63-2.7-3.11-4-4.54l-.77-.85.18,0c7.56-1.3,17-2.92,25.57-9a33.51,33.51,0,0,0,4.43-3.85c1.08,1.67,2.13,3.32,3.15,5,11.39,18.65,27.41,29.08,49,31.9a53,53,0,0,0,7,.47c15,0,26.84-6.42,36.66-12.08l0,.06.6,1.09c11.15,20.18,29.51,31.17,50.91,31.17a68.31,68.31,0,0,0,15.59-1.87c-.17,23.58-.34,45.85-6.4,67.12-7.9,27.7-24.76,52-51.56,74.45-19.26,16.1-24,35.05-26.19,51.47-3.73,28.64-3.94,56.58-3.1,89.71.65,25.61,4,50.47,6.85,69.25,1.12,7.46,2.47,14.9,3.77,22.08,1.39,7.67,2.83,15.6,4,23.31.77,5.35,2.83,19.56,17.76,24.77a14.44,14.44,0,0,0,18.37-8.88,14.43,14.43,0,0,0-7.18-17.66q-.18-.9-.39-2.37c-1.2-8.22-2.68-16.4-4.11-24.31-1.27-7-2.57-14.21-3.64-21.26-2.72-17.95-5.92-41.65-6.53-65.66-.81-31.79-.63-58.45,2.87-85.24,2.12-16.27,6.33-24.92,16.08-33.07,30.94-25.86,51.4-55.7,60.8-88.68,7.16-25.1,7.33-50.47,7.51-75l0-4.4c.07-9.19,1.56-15.8,5.12-22.81,9.82-19.28,17-39.49,24-59,3.69-10.34,7.51-21,11.61-31.28C775.73,341.05,772.77,320.74,760.63,304.63ZM425.69,214.71c-4.21-1.65-8.89-3.46-13.8-4.85q1.1-3,2.18-6c6.24-17,12.68-34.63,19.85-51.39,7.82-18.29,22.08-21.6,32.66-21.16,15.13.63,25.45,7.35,31.56,20.54,1.72,3.71,3.66,7.07,5.56,10.3a42.74,42.74,0,0,0-3.06,11.93l-.24.6q-11.68,31.5-23.34,63c-9.5-2.66-18.68-7.34-28.26-12.23A248.84,248.84,0,0,0,425.69,214.71Zm-17.87,149.6c-3.58-1.56-7-3-10.38-4.59q2.67-2.93,5.32-5.87c4.28-4.75,8.32-9.23,12.55-13.6.76-.79,1.68-1.74,2.66-2.84l1.15.2c4.74.82,9.22,1.6,12.32,3.1a50.7,50.7,0,0,0,6.59,2.62c-4.6,11.45-6.21,22.28-4.92,33A275.6,275.6,0,0,0,407.82,364.31Zm108.29,35.41c-.46.47-1.09,1.11-1.28,1.27-3.24,2.3-8.09,3.14-13.7,4.11A84.17,84.17,0,0,0,486,408.71c-8.18-5.29-16.37-10.86-22.6-17.77-.5-.55-1-1.07-1.51-1.58a44,44,0,0,0,.17-14.88c-1.11-6.44-.18-13,2.9-20.57a55.19,55.19,0,0,0,3.24-10.49A134.36,134.36,0,0,0,485.71,337l2.59-1.09c20.38-8.59,32.48-25.73,40.75-39.71,1.68-2.84,6.78-11.48,4.15-21.27-2.42-9-9.79-14.16-16.67-18-2.13-1.2-4.2-2.24-6.21-3.25-2.55-1.27-4.9-2.46-6.89-3.72q11.85-32,23.72-64a16.05,16.05,0,0,0,2.16-7.21c.44-8.65,6.08-12.18,19.85-18.74l1.47-.7c10.14-4.85,20.5-3.74,31.69,3.38,10.21,6.5,15.37,15.48,16.25,28.24a65.76,65.76,0,0,1-.07,7,72.65,72.65,0,0,0,.31,13.62c-12.29,17.33-18.92,36.49-25.35,55.07-1.68,4.83-3.41,9.82-5.18,14.61-3.93,10.59-8.06,21.35-12.06,31.75-8.21,21.4-16.71,43.54-24.11,65.85a49.39,49.39,0,0,0-1.61,6.49c-.13.68-.26,1.37-.42,2.05l-.21.85c-.24,1-.56,2.37-.87,3.37C522.53,393.16,518.55,397.22,516.11,399.72Zm75.8,29.2c-12.83-1.68-21.21-7.15-28-18.29-2.33-3.81-4.75-7.51-7.1-11.08.54-1.77.93-3.39,1.25-4.73l.18-.78c.3-1.21.51-2.33.71-3.32a24.66,24.66,0,0,1,.66-2.91c7.19-21.67,15.57-43.48,23.67-64.58,4-10.48,8.18-21.31,12.16-32.05,1.89-5.09,3.68-10.24,5.4-15.22,5.92-17.11,11.55-33.34,21.2-47.18a72.33,72.33,0,0,0,10.89-1.67c15.65-3.72,27.26-1,36.54,8.63,9.95,10.3,12.62,22.15,8.39,37.32-.22.81-.48,1.62-.72,2.42-1.33,4.27-3.19,10.28-2.2,17.32-12.34,17.41-19,36.62-25.5,55.23-2.51,7.23-4.89,14.06-7.58,20.79-4.49,11.23-8.49,22.7-12.35,33.79-1.63,4.68-3.32,9.51-5,14.24-1.94,1.07-3.82,2.16-5.67,3.23C608,426.33,600.93,430.1,591.91,428.92Zm149.85-80.68c-4.3,10.75-8.22,21.71-12,32.32-7,19.55-13.56,38-22.53,55.64a74.65,74.65,0,0,0-4.15,9.75,66.24,66.24,0,0,0-8.48,1.76l-1.65.42c-19.55,4.86-29.92-5.46-35.17-15l-.56-1a81.7,81.7,0,0,0-4.68-7.77c1.46-4.11,2.89-8.23,4.29-12.24,3.76-10.79,7.65-21.94,11.9-32.57,2.93-7.34,5.53-14.81,8-22,5.81-16.69,11.33-32.52,20.53-46.18l1.18,0c5.44-.12,11.07-.25,16.84-.84,7.67-.79,16.41,3.73,22.26,11.49C740.47,325.82,746.65,336,741.76,348.24Z" fill="#2699fb"/></svg>