<svg xmlns="http://www.w3.org/2000/svg" width="511.94" height="512.28" viewBox="0 0 511.94 512.28"><title>Asset 1</title><path d="M511.94,21.24V490.68c-.64,1.84-1.18,3.73-1.94,5.52A24.55,24.55,0,0,1,496,510c-2,.81-4.12,1.54-6.18,2.3H22.34a10.9,10.9,0,0,0-2.63-1.12,18.53,18.53,0,0,1-6.17-2.3A25.05,25.05,0,0,1,2,496.2a29.67,29.67,0,0,1-2-11.69Q0,256.3,0,28.1c0-.72,0-1.44,0-2.16A25.64,25.64,0,0,1,3.08,13.57a24.61,24.61,0,0,1,8.67-9.49c4.71-3,10-4.08,15.6-4.08Q256.27.09,485.19,0a26.32,26.32,0,0,1,14.69,3.87,24.66,24.66,0,0,1,11.23,15.41A13.27,13.27,0,0,0,511.94,21.24ZM196.62,183V385.3q0,21,0,42c0,3.32.09,3.39,3.32,3.39h54c.8,0,1.6,0,2.4,0,1.9-.07,2.33-.52,2.42-2.48,0-.72,0-1.44,0-2.16,0-29.67-.07-59.35,0-89,.05-15-.42-30.06,1-45.06a86.12,86.12,0,0,1,2-12.46,81.23,81.23,0,0,1,6.27-16.91,55.15,55.15,0,0,1,15.8-19.39,47.46,47.46,0,0,1,41.21-7.48,36.73,36.73,0,0,1,13,6.77,34.56,34.56,0,0,1,9.73,12.84A55.77,55.77,0,0,1,351,264.5a62.67,62.67,0,0,1,1.3,8.23c.57,4.5,1.36,9,1.54,13.53.5,12.78,1,25.57,1,38.36.14,34.16.05,68.31.05,102.47,0,1.08.12,2.17.18,3.39.94.08,1.63.19,2.33.2q28.08,0,56.15,0c.76,0,1.52-.14,2.48-.23v-3.6q0-78.94,0-157.89c0-3.92-.06-7.84-.12-11.76a26.8,26.8,0,0,0-.23-3.35c-.49-3.46-1-6.93-1.59-10.37a104.15,104.15,0,0,0-2.23-10.7A98.38,98.38,0,0,0,408,222.34a61.94,61.94,0,0,0-8.26-14.08,73.83,73.83,0,0,0-15-14.28c-5.62-4.08-11.42-7.87-18-10.23-3.25-1.16-6.39-2.69-9.72-3.56-4.15-1.09-8.42-1.73-12.66-2.45a82,82,0,0,0-28.39.59,92,92,0,0,0-16,4.46,94,94,0,0,0-12.58,5.75,172.32,172.32,0,0,0-23.49,15.85l-4.87,3.8c-.06-1.42-.14-2.35-.14-3.29,0-6.39,0-12.79,0-19.19,0-2.68-.06-2.72-2.63-2.75H196.62Zm-92.5.17V426.81c0,3.86,0,3.87,3.89,3.87q27.12,0,54.24,0c3.7,0,4,.81,4-4.08q0-54.6,0-109.19,0-65.4,0-130.79c0-1.17-.11-2.34-.17-3.48Zm31.77-21.91c3.35-.45,6.84,0,10.31-1.05a55.2,55.2,0,0,0,7.46-2.8,37.5,37.5,0,0,0,11-8.47,36.61,36.61,0,0,0,10.16-21.46A42.44,42.44,0,0,0,173.25,109a36.06,36.06,0,0,0-4.45-9.64c-6.88-9.79-16-16.17-28.16-17.71a39.65,39.65,0,0,0-23.4,4A38.64,38.64,0,0,0,102.06,99.4a36,36,0,0,0-6,18.25,47.57,47.57,0,0,0,.9,12.63,39.18,39.18,0,0,0,4.62,11.6,42.55,42.55,0,0,0,13.52,13.74,36.92,36.92,0,0,0,12.83,5.14C130.44,161.29,133.15,161.09,135.89,161.22Z" fill="#fff"/></svg>